# Created by Kenney (www.kenney.nl)

mtllib Doorway1.mtl

g mergedBlocks

v -0.5625 1.602965E-31 -0.5
v -0.5625 1 -0.5
v -0.5 6.316725E-16 -0.4375
v -0.5 1 -0.4375
v 0.5625 3.609557E-16 -0.5
v 0.5 6.316725E-16 -0.4375
v 0.5625 1 -0.5
v 0.5 1 -0.4375
v -0.2 7.219114E-16 -0.5925
v -0.3 7.219114E-16 -0.5925
v -0.2 7.219114E-16 -0.4075
v -0.3 7.219114E-16 -0.5625
v -0.3 7.219114E-16 -0.4075
v -0.3 7.219114E-16 -0.4375
v -0.5 6.316725E-16 -0.5625
v 0.5 1 -0.5625
v -0.5 1 -0.5625
v 0.5 6.316725E-16 -0.5625
v -0.3 0.9 -0.5625
v 0.3 0.9 -0.5625
v 0.3 7.219114E-16 -0.5625
v 0.3 7.219114E-16 -0.4375
v 0.3 0.9 -0.4375
v -0.3 0.9 -0.4375
v 0.2 7.219114E-16 -0.5925
v 0.3 7.219114E-16 -0.5925
v 0.3 7.219114E-16 -0.4075
v 0.2 7.219114E-16 -0.4075
v -0.2 0.8 -0.5925
v -0.2 0.8 -0.4075
v 0.2 0.8 -0.5925
v 0.2 0.8 -0.4075
v 0.3 0.9 -0.4075
v -0.3 0.9 -0.4075
v -0.3 0.9 -0.5925
v 0.3 0.9 -0.5925

vn -0.7071068 0 0.7071068
vn 0.7071068 0 0.7071068
vn 0 -1 0
vn 0 1 0
vn 0.7071068 0 -0.7071068
vn 0 0 -1
vn -0.7071068 0 -0.7071068
vn 0 0 1
vn 1 0 0
vn -1 0 0

vt -0.5625 1.602965E-31
vt -0.5625 1
vt -0.5 6.316725E-16
vt -0.5 1
vt 0.5625 3.609557E-16
vt 0.5 6.316725E-16
vt 0.5625 1
vt 0.5 1
vt 0.2 0.5925
vt 0.3 0.5925
vt 0.2 0.4075
vt 0.3 0.5625
vt 0.3 0.4075
vt -0.3 7.219114E-16
vt 0.5 0.5625
vt 0.3 0.4375
vt 0.5 0.4375
vt 0.5625 0.5
vt -0.5625 -0.5
vt -0.5 -0.4375
vt -0.5 -0.5625
vt 0.5 -0.5625
vt 0.5 -0.4375
vt 0.5625 -0.5
vt -0.5625 3.609557E-16
vt 0.3 7.219114E-16
vt 0.3 0.9
vt -0.3 0.9
vt 0.5625 1.602965E-31
vt -0.5625 0.5
vt -0.5 0.5625
vt -0.5 0.4375
vt -0.3 0.5625
vt -0.3 0.4375
vt -0.2 0.5925
vt -0.3 0.5925
vt -0.3 0.4075
vt -0.2 0.4075
vt 0.5925 0.8
vt 0.5925 7.219114E-16
vt 0.4075 0.8
vt 0.4075 7.219114E-16
vt -0.5925 7.219114E-16
vt -0.5925 0.8
vt -0.4075 7.219114E-16
vt -0.4075 0.8
vt 0.2 7.219114E-16
vt 0.2 0.8
vt -0.2 0.8
vt -0.2 7.219114E-16
vt -0.3 -0.4375
vt -0.3 -0.4075
vt 0.3 -0.4375
vt 0.3 -0.4075
vt -0.4375 7.219114E-16
vt -0.4375 0.9
vt -0.4075 0.9
vt 0.4375 0.9
vt 0.4375 7.219114E-16
vt 0.4075 0.9
vt -0.3 -0.5925
vt -0.3 -0.5625
vt 0.3 -0.5925
vt 0.3 -0.5625
vt 0.5925 0.9
vt 0.5625 0.9
vt 0.5625 7.219114E-16
vt -0.5925 0.9
vt -0.5625 7.219114E-16
vt -0.5625 0.9

usemtl stone

f 3/3/1 2/2/1 1/1/1
f 2/2/1 3/3/1 4/4/1
f 7/7/2 6/6/2 5/5/2
f 6/6/2 7/7/2 8/8/2
f 11/11/3 10/10/3 9/9/3
f 10/10/3 11/11/3 12/12/3
f 12/12/3 11/11/3 13/13/3
f 12/14/3 13/14/3 14/14/3
f 14/16/3 15/15/3 12/12/3
f 15/15/3 14/16/3 3/17/3
f 15/15/3 3/17/3 1/18/3
f 16/21/4 8/20/4 7/19/4
f 8/20/4 16/21/4 17/22/4
f 8/20/4 17/22/4 4/23/4
f 4/23/4 17/22/4 2/24/4
f 7/2/5 18/3/5 16/4/5
f 18/3/5 7/2/5 5/25/5
f 17/8/6 12/26/6 15/6/6
f 12/26/6 17/8/6 19/27/6
f 19/27/6 17/8/6 20/28/6
f 16/4/6 20/28/6 17/8/6
f 16/4/6 21/14/6 20/28/6
f 21/14/6 16/4/6 18/3/6
f 2/7/7 15/6/7 1/29/7
f 15/6/7 2/7/7 17/8/7
f 8/8/8 22/26/8 6/6/8
f 22/26/8 8/8/8 23/27/8
f 23/27/8 8/8/8 24/28/8
f 4/4/8 24/28/8 8/8/8
f 4/4/8 14/14/8 24/28/8
f 14/14/8 4/4/8 3/3/8
f 6/32/3 18/31/3 5/30/3
f 18/31/3 6/32/3 21/33/3
f 21/33/3 6/32/3 22/34/3
f 25/35/3 21/33/3 22/34/3
f 21/33/3 25/35/3 26/36/3
f 25/35/3 22/34/3 27/37/3
f 25/35/3 27/37/3 28/38/3

usemtl stoneDark

f 30/41/9 9/40/9 29/39/9
f 9/40/9 30/41/9 11/42/9
f 28/45/10 31/44/10 25/43/10
f 31/44/10 28/45/10 32/46/10
f 32/38/3 29/9/3 31/35/3
f 29/9/3 32/38/3 30/11/3
f 33/27/8 28/47/8 27/26/8
f 28/47/8 33/27/8 32/48/8
f 32/48/8 33/27/8 30/49/8
f 34/28/8 30/49/8 33/27/8
f 13/14/8 30/49/8 34/28/8
f 30/49/8 13/14/8 11/50/8
f 24/53/4 33/52/4 23/51/4
f 33/52/4 24/53/4 34/54/4
f 13/45/10 24/56/10 14/55/10
f 24/56/10 13/45/10 34/57/10
f 33/60/9 22/59/9 23/58/9
f 22/59/9 33/60/9 27/42/9
f 35/27/6 9/47/6 10/26/6
f 9/47/6 35/27/6 29/48/6
f 29/48/6 35/27/6 31/49/6
f 36/28/6 31/49/6 35/27/6
f 26/14/6 31/49/6 36/28/6
f 31/49/6 26/14/6 25/50/6
f 35/63/4 20/62/4 36/61/4
f 20/62/4 35/63/4 19/64/4
f 20/66/9 26/40/9 36/65/9
f 26/40/9 20/66/9 21/67/9
f 12/69/10 35/68/10 10/43/10
f 35/68/10 12/69/10 19/70/10

